# xmcd
#
# Track frame offsets:
#	150
#	13064
#	28912
#	43269
#	57042
#	72615
#	88611
#	103050
#	114563
#	128385
#	141288
#	153935
#	163960
#	175931
#	191026
#	200581
#
# Disc length: 2848 seconds
#
# Revision: 1
# Processed by: cddbd v1.5.2PL0 Copyright (c) Steve Scherf et al.
# Submitted via: audiograbber 1.83.01
#
DISCID=e80b1e10
DTITLE=Stardust - Stardust 074
DYEAR=2008
DGENRE=Country
TTITLE0=Jamboree By The Lake  - Mayf Nutter
TTITLE1=Pale Moon  - Becky Hobbs
TTITLE2=Chase Each Other Around The Room  - Boggy Branch Band
TTITLE3=You Don´t Have Very Far To Go - Jerri Arnold
TTITLE4=Everybody Loves A Cowboy  - Tommy Young
TTITLE5=I Feel Like A Ghost  - Kenton Koty
TTITLE6=Slow Hand  - Beau Renfo
TTITLE7=My Shoes Keep Walking Back To You  - Donna Darlene
TTITLE8=The Day The Eagle Cried  - Bill Forster
TTITLE9=Two Timing Chicken - Kathy D Baker
TTITLE10=Wanted Man  - Ernie Ashworth
TTITLE11=Legend Of Thunderhawk  - Buster Doss
TTITLE12=A Dreamer - Jillian Marie
TTITLE13=I Love You, I´m Sorry, Goodbye - Jack Blanchard and Misty Morgan
TTITLE14=Shout And Shine  - Brazograss
TTITLE15=Big Blue Eyes  - Rooster Quantrell
EXTD=
EXTT0=
EXTT1=
EXTT2=
EXTT3=
EXTT4=
EXTT5=
EXTT6=
EXTT7=
EXTT8=
EXTT9=
EXTT10=
EXTT11=
EXTT12=
EXTT13=
EXTT14=
EXTT15=
PLAYORDER=
